<svg width="24" height="24" viewBox="0 0 24 24" fill="none" 
  xmlns="http://www.w3.org/2000/svg">
  <rect width="24" height="24" fill="none" rx="0" ry="0"></rect>
  <path fill-rule="evenodd" clip-rule="evenodd" d="M4 4C2.89543 4 2 4.89543 2 6V7V18C2 19.1046 2.89543 20 4 20H20C21.1046 20 22 19.1046 22 18V7V6C22 4.89543 21.1046 4 20 4H4ZM3.2 17.8V7.84L9.13269 11.9929C10.8543 13.198 13.1457 13.198 14.8673 11.9929L20.8 7.84V17.8C20.8 18.3523 20.3523 18.8 19.8 18.8H4.2C3.64772 18.8 3.2 18.3523 3.2 17.8ZM4.2 5.2C3.64772 5.2 3.2 5.64772 3.2 6.2V6.41393L9.69965 10.9829C11.0798 11.9531 12.9202 11.9531 14.3004 10.9829L20.8 6.41393V6.2C20.8 5.64772 20.3523 5.2 19.8 5.2H4.2Z" fill="#ffffff"></path>
</svg>