<svg width="24" height="24" viewBox="0 0 24 24" fill="none" xmlns="http://www.w3.org/2000/svg"><rect width="24" height="24" fill="none" rx="0" ry="0"></rect><path fill-rule="evenodd" clip-rule="evenodd" d="M6.52988 3.90308H18.5999C20.1399 3.90308 21.3899 5.15308 21.3899 6.69308V18.7631C21.3899 20.3031 20.1399 21.5531 18.5999 21.5531H6.52988C4.98988 21.5531 3.73987 20.3031 3.73987 18.7631V6.69308C3.73987 5.15308 4.98988 3.90308 6.52988 3.90308ZM18.5999 20.3531C19.4799 20.3531 20.1899 19.6431 20.1899 18.7631V6.69308C20.1899 5.81308 19.4799 5.10308 18.5999 5.10308H6.52988C5.64988 5.10308 4.93988 5.81308 4.93988 6.69308V18.7631C4.93988 19.6431 5.64988 20.3531 6.52988 20.3531H18.5999ZM7.35986 11.4031C7.35986 10.8531 7.80986 10.4031 8.35986 10.4031C8.90986 10.4031 9.35986 10.8531 9.35986 11.4031V17.2431C9.35986 17.7931 8.90986 18.2431 8.35986 18.2431C7.80986 18.2431 7.35986 17.7931 7.35986 17.2431V11.4031ZM8.35986 9.20312C8.91215 9.20312 9.35986 8.75541 9.35986 8.20312C9.35986 7.65084 8.91215 7.20312 8.35986 7.20312C7.80758 7.20312 7.35986 7.65084 7.35986 8.20312C7.35986 8.75541 7.80758 9.20312 8.35986 9.20312ZM13.0498 11.6231C13.8398 11.0831 14.7398 10.6031 15.5198 10.6031C17.7798 10.6331 17.7798 12.6931 17.7798 13.5731V17.2531C17.7798 17.8031 17.3298 18.2531 16.7798 18.2531C16.2298 18.2531 15.7798 17.8031 15.7798 17.2531V13.5731C15.7798 13.0631 15.7498 12.7431 15.6998 12.6131C15.6934 12.6131 15.6839 12.612 15.671 12.6107C15.6437 12.6077 15.601 12.6031 15.5398 12.6031C15.0898 12.6031 13.9398 13.3831 13.0498 14.1731V17.2431C13.0498 17.7931 12.5998 18.2431 12.0498 18.2431C11.4998 18.2431 11.0498 17.7931 11.0498 17.2431V11.4031C11.0498 10.8531 11.4998 10.4031 12.0498 10.4031C12.5998 10.4031 13.0498 10.8531 13.0498 11.4031V11.6231Z" fill="#ffffff"></path></svg>